# xmcd CD database file
#
# Track frame offsets:
#	150
#	12430
#	23362
#	40547
#	53062
#	65805
#	76735
#	82347
#	98650
#	114360
#	128610
#	139347
#	156682
#
# Disc length: 2236 seconds
#
# Revision: 0
# Processed by: cddbd v1.5.1PL2 Copyright (c) Steve Scherf et al.
# Submitted via: CDex 1.51
#
DISCID=a208ba0d
DTITLE=Dixie Cadillacs - Drifter
DYEAR=1900
DGENRE=Country
TTITLE0=Gypsy Drifter
TTITLE1=Send One Night
TTITLE2=Lovin' You Is All I Need
TTITLE3=Holdin' On To You
TTITLE4=Guadalupe River
TTITLE5=Mandolin Man
TTITLE6=Mandolin Man Reprise
TTITLE7=Can't Break a Broken Heart
TTITLE8=Comes As No Surprise
TTITLE9=Margaritas Make Me Cry
TTITLE10=Invitation
TTITLE11=Where I Wanna Be
TTITLE12=Mandolin Man - Unplugged
EXTD=
EXTT0=
EXTT1=
EXTT2=
EXTT3=
EXTT4=
EXTT5=
EXTT6=
EXTT7=
EXTT8=
EXTT9=
EXTT10=
EXTT11=
EXTT12=
PLAYORDER=
